<svg xmlns="http://www.w3.org/2000/svg" xmlns:xlink="http://www.w3.org/1999/xlink" width="564.661" height="262.303" viewBox="0 0 564.661 262.303">
  <defs>
    <linearGradient id="linear-gradient" x1="5.059" y1="0.546" x2="0.052" y2="0.495" gradientUnits="objectBoundingBox">
      <stop offset="0" stop-color="#fc00ff"/>
      <stop offset="1" stop-color="#00dbde"/>
    </linearGradient>
    <linearGradient id="linear-gradient-2" x1="3.618" y1="0.537" x2="-0.768" y2="0.485" xlink:href="#linear-gradient"/>
    <linearGradient id="linear-gradient-3" x1="3.251" y1="0.526" x2="-2.157" y2="0.474" xlink:href="#linear-gradient"/>
    <linearGradient id="linear-gradient-4" x1="2.716" y1="0.519" x2="-3.668" y2="0.467" xlink:href="#linear-gradient"/>
    <linearGradient id="linear-gradient-5" x1="1.679" y1="0.511" x2="-4.706" y2="0.459" xlink:href="#linear-gradient"/>
    <linearGradient id="linear-gradient-6" x1="4.363" y1="0.546" x2="-0.022" y2="0.494" xlink:href="#linear-gradient"/>
    <linearGradient id="linear-gradient-7" x1="3.572" y1="0.536" x2="-0.948" y2="0.484" xlink:href="#linear-gradient"/>
    <linearGradient id="linear-gradient-8" x1="2.917" y1="0.523" x2="-2.299" y2="0.472" xlink:href="#linear-gradient"/>
    <linearGradient id="linear-gradient-9" x1="1.632" y1="0.514" x2="-2.661" y2="0.462" xlink:href="#linear-gradient"/>
    <linearGradient id="linear-gradient-10" x1="0.933" y1="0.504" x2="-4.075" y2="0.454" xlink:href="#linear-gradient"/>
  </defs>
  <g id="Group_1543" data-name="Group 1543" transform="translate(-167.18 -181.697)">
    <path id="Path_5031" data-name="Path 5031" d="M167.18,287.546l21.953-31.653c9.53,8.339,20.761,12.763,30.291,12.763,4.765,0,7.318-1.191,7.318-3.4,0-1.7-2.383-2.893-9.53-3.914-16.337-2.383-35.226-13.1-35.226-31.652,0-28.931,24.845-47.99,55.987-47.99,16,0,30.632,5.1,39.651,13.954L257.2,224.071c-10.381-8-18.889-9.871-26.547-9.871-4.085,0-7.488,1.022-7.488,3.234,0,1.7,2.212,2.382,8.168,3.233,8.169,1.021,17.018,4.935,22.634,8.509,8.679,5.786,13.273,12.423,13.273,22.463,0,30.291-25.355,50.542-57.519,50.542C198.152,302.181,183.177,300.99,167.18,287.546Z" fill="url(#linear-gradient)"/>
    <path id="Path_5032" data-name="Path 5032" d="M340.593,259.638h-21.1l-6.467,40.5H269.8l18.549-117.422h43.224L325.107,223.9h21.1l6.466-41.183H395.9L377.351,300.139H334.127Z" fill="url(#linear-gradient-2)"/>
    <path id="Path_5033" data-name="Path 5033" d="M412.07,182.717H495.8l-5.276,33.356H449.678l-1.361,8.848h38.8l-5.106,32.5h-38.8l-1.532,9.02h42.374l-5.275,33.694H393.521Z" fill="url(#linear-gradient-3)"/>
    <path id="Path_5034" data-name="Path 5034" d="M509.244,182.717h43.565L539.876,264.4h37.439L571.7,300.139h-81Z" fill="url(#linear-gradient-4)"/>
    <path id="Path_5035" data-name="Path 5035" d="M599.1,182.717h43.565L629.732,264.4h37.439l-5.616,35.737h-81Z" fill="url(#linear-gradient-5)"/>
    <path id="Path_5036" data-name="Path 5036" d="M244.95,401.456h-21.1l-6.467,40.5H174.157l18.55-117.422h43.224l-6.466,41.183h21.1l6.467-41.183h43.225l-18.55,117.422H238.483Z" fill="url(#linear-gradient-6)"/>
    <path id="Path_5037" data-name="Path 5037" d="M362.887,425.621H336.851l-6.3,16.337H287.329l55.647-117.251h48.841l17.868,117.251H364.079ZM346.55,397.883H361.7l-1.872-32.845Z" fill="url(#linear-gradient-7)"/>
    <path id="Path_5038" data-name="Path 5038" d="M467.21,444c-29.781,0-52.074-17.528-52.074-50.542,0-45.437,33.525-70.623,71.134-70.623,24.335,0,34.886,10.04,34.886,10.04l-16.678,37.1a32.4,32.4,0,0,0-21.271-8c-11.743,0-23.144,9.018-23.144,24.845,0,11.062,6.807,17.188,16.507,17.188,10.04,0,19.91-5.106,25.867-9.36l6.3,35.227C505.16,433.109,492.4,444,467.21,444Z" fill="url(#linear-gradient-8)"/>
    <path id="Path_5039" data-name="Path 5039" d="M566.937,403.158l-4.254,5.275-5.276,33.525H514.183l18.549-117.422h43.224l-5.446,34.376,22.124-34.376h50.372l-41.523,47.65,25.186,69.772H575.275Z" fill="url(#linear-gradient-9)"/>
    <path id="Path_5040" data-name="Path 5040" d="M621.4,429.365l21.953-31.653c9.53,8.339,20.761,12.763,30.291,12.763,4.766,0,7.318-1.191,7.318-3.4,0-1.7-2.383-2.893-9.53-3.914-16.337-2.383-35.226-13.1-35.226-31.653,0-28.93,24.845-47.989,55.987-47.989,16,0,30.632,5.105,39.652,13.954l-20.422,28.42c-10.38-8-18.889-9.871-26.547-9.871-4.084,0-7.488,1.021-7.488,3.234,0,1.7,2.213,2.382,8.169,3.233,8.168,1.021,17.017,4.935,22.633,8.508,8.679,5.787,13.274,12.423,13.274,22.464C721.46,423.749,696.1,444,663.941,444,652.369,444,637.393,442.809,621.4,429.365Z" fill="url(#linear-gradient-10)"/>
  </g>
</svg>
