<svg xmlns="http://www.w3.org/2000/svg" xmlns:xlink="http://www.w3.org/1999/xlink" width="33.469" height="33.469" viewBox="0 0 33.469 33.469"><defs><linearGradient id="linear-gradient" x1="1.138" x2="-.061" y1="-.11" y2="1.036" gradientUnits="objectBoundingBox"><stop offset="0" stop-color="#fff"/><stop offset="1" stop-color="#fff"/></linearGradient></defs><g id="discord" transform="translate(-332.533 -936.91)"><g id="Group_1541" data-name="Group 1541"><path id="Path_5027" fill="#fff" d="M347.944,952.811a.848.848,0,1,0,.781.845A.814.814,0,0,0,347.944,952.811Z" data-name="Path 5027"/><path id="Path_5028" fill="#fff" d="M350.726,952.811a.848.848,0,1,0,.782.845A.815.815,0,0,0,350.726,952.811Z" data-name="Path 5028"/><path id="Path_5029" fill="#fff" d="M354.438,946.408H344.207a1.568,1.568,0,0,0-1.562,1.575V958.3a1.568,1.568,0,0,0,1.562,1.576h8.657l-.4-1.41.975.907.92.856L356,961.671V947.983A1.568,1.568,0,0,0,354.438,946.408Zm-2.947,9.969s-.272-.33-.5-.62a2.383,2.383,0,0,0,1.38-.908,4.564,4.564,0,0,1-.88.453,5.487,5.487,0,0,1-1.11.33,5.388,5.388,0,0,1-1.978,0,5.833,5.833,0,0,1-1.12-.328,4.527,4.527,0,0,1-.561-.263l-.071-.039-.033-.019c-.136-.078-.211-.13-.211-.13a2.366,2.366,0,0,0,1.338.9c-.23.291-.51.631-.51.631a2.769,2.769,0,0,1-2.33-1.164,10.226,10.226,0,0,1,1.1-4.448,3.742,3.742,0,0,1,2.141-.8l.079.09a5.027,5.027,0,0,0-2,1,4.646,4.646,0,0,1,.454-.218,5.833,5.833,0,0,1,1.732-.483c.043-.006.085-.013.128-.018a6.54,6.54,0,0,1,1.544-.014,6.22,6.22,0,0,1,2.3.733,5.008,5.008,0,0,0-1.9-.97l.107-.123a3.736,3.736,0,0,1,2.14.8,10.218,10.218,0,0,1,1.1,4.448A2.769,2.769,0,0,1,351.491,956.377Z" data-name="Path 5029"/></g><g id="Group_1542" data-name="Group 1542"><path id="Path_5030" fill="url(#linear-gradient)" d="M355.752,970.379H342.783a10.261,10.261,0,0,1-10.25-10.25V947.16a10.261,10.261,0,0,1,10.25-10.25h12.969A10.261,10.261,0,0,1,366,947.16v12.969A10.261,10.261,0,0,1,355.752,970.379Zm-12.969-32.225a9.016,9.016,0,0,0-9.006,9.006v12.969a9.017,9.017,0,0,0,9.006,9.007h12.969a9.017,9.017,0,0,0,9.006-9.007V947.16a9.016,9.016,0,0,0-9.006-9.006Z" data-name="Path 5030"/></g></g></svg>