<svg xmlns="http://www.w3.org/2000/svg" xmlns:xlink="http://www.w3.org/1999/xlink" width="33.469" height="33.468" viewBox="0 0 33.469 33.468"><defs><linearGradient id="linear-gradient" x2="1" y1=".5" y2=".5" gradientUnits="objectBoundingBox"><stop offset="0" stop-color="#fff"/><stop offset="1" stop-color="#fff"/></linearGradient></defs><g id="facebook" transform="translate(-379.567 -936.694)"><g id="Group_1529" data-name="Group 1529"><path id="Path_5001" fill="url(#linear-gradient)" d="M402.786,970.162H389.817a10.261,10.261,0,0,1-10.25-10.249V946.944a10.261,10.261,0,0,1,10.25-10.25h12.969a10.261,10.261,0,0,1,10.25,10.25v12.969A10.261,10.261,0,0,1,402.786,970.162Zm-12.969-32.225a9.017,9.017,0,0,0-9.006,9.007v12.969a9.016,9.016,0,0,0,9.006,9.006h12.969a9.016,9.016,0,0,0,9.006-9.006V946.944a9.017,9.017,0,0,0-9.006-9.007Z" data-name="Path 5001"/></g><path id="Path_5002" fill="url(#linear-gradient)" d="M400.768,944.592l-2.605-.058a3.816,3.816,0,0,0-3.9,3.817v2.471h-2.421a.179.179,0,0,0-.18.18v3.1a.18.18,0,0,0,.18.18h2.421v7.856a.18.18,0,0,0,.18.181h3.206a.181.181,0,0,0,.18-.181v-7.856h2.441a.179.179,0,0,0,.178-.157l.4-3.1a.18.18,0,0,0-.044-.142.178.178,0,0,0-.135-.061h-2.844v-1.57a1.787,1.787,0,0,1,.331-1.2.977.977,0,0,1,.766-.3h1.842a.181.181,0,0,0,.18-.18v-2.8A.18.18,0,0,0,400.768,944.592Z" data-name="Path 5002"/></g></svg>