<svg xmlns="http://www.w3.org/2000/svg" xmlns:xlink="http://www.w3.org/1999/xlink" width="33.468" height="33.469" viewBox="0 0 33.468 33.469"><defs><linearGradient id="linear-gradient" x1=".951" x2=".06" y1=".049" y2=".94" gradientUnits="objectBoundingBox"><stop offset="0" stop-color="#fff"/><stop offset="1" stop-color="#fff"/></linearGradient><linearGradient id="linear-gradient-2" x1="1.43" x2="-.407" y1="-.43" y2="1.407" xlink:href="#linear-gradient"/><linearGradient id="linear-gradient-3" x1="2.502" x2="-1.454" y1="-1.502" y2="2.454" xlink:href="#linear-gradient"/><linearGradient id="linear-gradient-4" x1="5.347" x2="-7.99" y1="-4.348" y2="8.99" xlink:href="#linear-gradient"/></defs><g id="instagram" transform="translate(-427.21 -936.585)"><g id="Group_1531" data-name="Group 1531"><path id="Path_5003" fill="url(#linear-gradient)" d="M450.429,970.054H437.46a10.261,10.261,0,0,1-10.25-10.25V946.835a10.261,10.261,0,0,1,10.25-10.25h12.969a10.261,10.261,0,0,1,10.249,10.25V959.8A10.261,10.261,0,0,1,450.429,970.054ZM437.46,937.829a9.017,9.017,0,0,0-9.007,9.006V959.8a9.017,9.017,0,0,0,9.007,9.006h12.969a9.016,9.016,0,0,0,9.006-9.006V946.835a9.016,9.016,0,0,0-9.006-9.006Z" data-name="Path 5003"/></g><g id="Group_1532" data-name="Group 1532"><path id="Path_5004" fill="url(#linear-gradient-2)" d="M447.385,945.2H440.5a4.682,4.682,0,0,0-4.676,4.676v6.881a4.682,4.682,0,0,0,4.676,4.676h6.881a4.681,4.681,0,0,0,4.675-4.676v-6.881A4.681,4.681,0,0,0,447.385,945.2ZM450.4,956.76a3.023,3.023,0,0,1-3.019,3.019H440.5a3.023,3.023,0,0,1-3.02-3.019v-6.881a3.023,3.023,0,0,1,3.02-3.019h6.881a3.023,3.023,0,0,1,3.019,3.019Z" data-name="Path 5004"/><path id="Path_5005" fill="url(#linear-gradient-3)" d="M443.944,949.55a3.77,3.77,0,1,0,3.77,3.769A3.774,3.774,0,0,0,443.944,949.55Zm0,5.806a2.036,2.036,0,1,1,2.037-2.037A2.039,2.039,0,0,1,443.944,955.356Z" data-name="Path 5005"/><path id="Path_5006" fill="url(#linear-gradient-4)" d="M448.168,947.916a1.118,1.118,0,1,0,1.118,1.118A1.117,1.117,0,0,0,448.168,947.916Z" data-name="Path 5006"/></g></g></svg>