<svg xmlns="http://www.w3.org/2000/svg" xmlns:xlink="http://www.w3.org/1999/xlink" width="33.468" height="33.469" viewBox="0 0 33.468 33.469"><defs><linearGradient id="linear-gradient" x1="1.138" x2="-.061" y1="-.11" y2="1.036" gradientUnits="objectBoundingBox"><stop offset="0" stop-color="#fff"/><stop offset="1" stop-color="#fff"/></linearGradient><linearGradient id="linear-gradient-2" x1="10.627" x2="-5.783" y1="-2.323" y2="2.251" xlink:href="#linear-gradient"/><linearGradient id="linear-gradient-3" x1="8.528" x2="-6.449" y1="-7.172" y2="7.14" xlink:href="#linear-gradient"/><linearGradient id="linear-gradient-4" x1="3.133" x2="-1.868" y1="-1.841" y2="2.605" xlink:href="#linear-gradient"/></defs><g id="linkedIn" transform="translate(-522.532 -936.946)"><g id="Group_1536" data-name="Group 1536"><path id="Path_5009" fill="url(#linear-gradient)" d="M545.75,970.415H532.782a10.261,10.261,0,0,1-10.25-10.25V947.2a10.261,10.261,0,0,1,10.25-10.25H545.75A10.261,10.261,0,0,1,556,947.2v12.969A10.261,10.261,0,0,1,545.75,970.415Zm-12.968-32.226a9.017,9.017,0,0,0-9.007,9.007v12.969a9.016,9.016,0,0,0,9.007,9.006H545.75a9.016,9.016,0,0,0,9.007-9.006V947.2a9.017,9.017,0,0,0-9.007-9.007Z" data-name="Path 5009"/></g><g id="Group_1537" data-name="Group 1537"><rect id="Rectangle_74" width="2.445" height="8.383" fill="url(#linear-gradient-2)" data-name="Rectangle 74" transform="translate(533.288 951.32)"/><path id="Path_5010" fill="url(#linear-gradient-3)" d="M534.51,947.659A1.34,1.34,0,1,0,535.85,949,1.339,1.339,0,0,0,534.51,947.659Z" data-name="Path 5010"/><path id="Path_5011" fill="url(#linear-gradient-4)" d="M543.361,951.291a3.279,3.279,0,0,0-3.481.893h0l-.3-1.106h-2.242V959.7h2.622v-5.116a1.384,1.384,0,0,1,1.384-1.383h0a1.383,1.383,0,0,1,1.383,1.383V959.7h2.622V955.39S545.639,951.932,543.361,951.291Z" data-name="Path 5011"/></g></g></svg>